<!-- 
INVENTORY

Withdraw User Trigger Transfer Token Tick SubtractSignOut Share Settings Send Sell Search Refresh
Play Pay Pause Password Options OpenProject NotificationsBell MultipleProjects Manage Leaderboard
Home Guest File Edit Deposit Dashboard Copy ContractCreation Contract Close Clear ChevronRight
ChevronLeft Chevron Checkbox Buy Background BackArrow AudioLoader AddSections Add

 -->

<!-- Withdraw -->
<svg xmlns="http://www.w3.org/2000/svg" width="64" height="64" viewBox="0 0 64 64"><defs><style>.a{fill:none;stroke:#000;stroke-linecap:round;stroke-linejoin:round;stroke-width:3px;}</style></defs><title>withdraw</title><line class="a" x1="8.79" y1="35.68" x2="8.79" y2="26.74"/><polyline class="a" points="48.37 7.28 58.37 7.28 58.37 56.72 48.55 56.72"/><line class="a" x1="14.07" y1="58.82" x2="19.34" y2="58.82"/><line class="a" x1="49.93" y1="58.82" x2="52.04" y2="58.82"/><path class="a" d="M8.54,12.54h.51A2.91,2.91,0,0,1,12,15.45v8.39a2.91,2.91,0,0,1-2.91,2.9H8.54a2.9,2.9,0,0,1-2.91-2.9V15.45A2.91,2.91,0,0,1,8.54,12.54Z"/><path class="a" d="M8.54,35.68h.51A2.91,2.91,0,0,1,12,38.58V47a2.91,2.91,0,0,1-2.91,2.9H8.54A2.9,2.9,0,0,1,5.63,47v-8.4A2.9,2.9,0,0,1,8.54,35.68Z"/><polyline class="a" points="8.59 12.54 8.59 7.28 48.35 1.5 48.55 62.5 8.59 56.72 8.59 49.88"/><path class="a" d="M35.84,39.56c0,6.64-3.43,12-7.62,12.08S20.84,46.46,20.84,40s3.3-11.87,7.44-12.07S35.84,32.93,35.84,39.56Z"/><path class="a" d="M31,39.7c0,2.43-1.26,4.42-2.79,4.45s-2.76-1.89-2.76-4.29,1.27-4.39,2.76-4.45S31,37.26,31,39.7Z"/></svg>

<!-- User -->
<svg viewBox="0 0 64 64" >
<title>user</title>
<path d="M31.6,0.5c8.3,0,14.2,5.6,14.2,15S41.1,32.9,32,32.9s-13.8-8-13.8-17.3s5.9-15,14.2-15"/>
<path d="M25.4,33.4c-2.5,4.7-10.5,7.1-16.4,9.7c-2.4,1-4.4,14-1.6,14c7.7,4.4,16.4,6.6,25.2,6.4
	c8.5,0.3,16.9-2,24.2-6.4c2.8,0,0.8-12.9-1.6-14c-5.9-2.6-13.9-5-16.4-9.7"/>
</svg>

<!-- Trigger -->
<svg viewBox="0 0 64 64">
    <circle cx="32" cy="32" r="31"/>
    <polyline points="32 13.47 32 32 43.4 43.4"/>
</svg>

<!-- Transfer -->
<svg viewBox="0 0 64 64">
    <title>transfer</title>
    <polyline points="17.04 35.97 14.57 33.5 40.15 7.9 32.75 0.5 55.52 0.5 55.52 23.28 48.12 15.87 23.86 40.14 15.88 48.13 8.48 40.72 8.48 63.5 31.25 63.5 23.85 56.1 49.43 30.5 46.96 28.03"/>
</svg>

<!-- Token -->
<svg viewBox="0 0 64 64">
    <title>token</title>
    <circle cx="32" cy="32" r="31"/>
    <circle cx="32" cy="32" r="25.19"/>
    <line x1="37" y1="21.74" x2="43.14" y2="21.74"/>
    <path d="M20.86,21.74H32V43.23"/>
</svg>

<!-- Tick -->
<svg viewBox="0 0 64 64">
<title>tick</title>
<polyline points="0.35 31.82 21.45 52.98 63.65 10.66"/>
</svg>

<!-- Subtract -->
<svg viewBox="0 0 64 64">
<title>subtract</title>
<line y1="32" x2="64" y2="32"/>
</svg>

<!-- Sign Out -->
<svg viewBox="0 0 64 64">
<title>sign out</title>
<path d="M38.56.5H51.85a7.37,7.37,0,0,1,7.37,7.37V56.13a7.37,7.37,0,0,1-7.37,7.37H38.56"/>
<polyline points="19.38 17.6 4.99 32 19.38 46.4"/>
<line x1="5.74" y1="32" x2="41.02" y2="32"/>
</svg>

<!-- Share -->
<svg viewBox="0 0 64 64">
<title>share</title>
<line x1="16.36" y1="17.11" x2="24.18" y2="9.3"/>
<polyline points="32 41.22 32 1.48 47.64 17.11"/>
<path d="M53.4,32.29V59.07a4.58,4.58,0,0,1-4.58,4.57H15.18a4.58,4.58,0,0,1-4.58-4.57V32.29"/>
</svg>

<!-- Settings -->
<svg viewBox="0 0 64 64">
<title>settings</title>
<path d="M41,62.92a1.7,1.7,0,0,1-1.45-.83L37,57.7a2.63,2.63,0,0,0-2.27-1.34h-.26a23.91,23.91,0,0,1-5,0h-.26A2.63,2.63,0,0,0,27,57.7l-2.54,4.39a1.67,1.67,0,0,1-1.44.83,1.72,1.72,0,0,1-.83-.22L10.33,55.86a1.67,1.67,0,0,1-.61-2.27l2.54-4.41a2.61,2.61,0,0,0-.12-2.85A23.77,23.77,0,0,1,9.65,42,2.65,2.65,0,0,0,7.24,40.5H2.17A1.67,1.67,0,0,1,.5,38.83V25.17A1.67,1.67,0,0,1,2.17,23.5H7.24A2.64,2.64,0,0,0,9.65,22a25,25,0,0,1,2.49-4.31,2.63,2.63,0,0,0,.12-2.85l-2.54-4.4a1.67,1.67,0,0,1,.61-2.27L22.17,1.3A1.72,1.72,0,0,1,23,1.08a1.67,1.67,0,0,1,1.44.83L27,6.3a2.63,2.63,0,0,0,2.27,1.34h.26a23.91,23.91,0,0,1,5,0h.26A2.63,2.63,0,0,0,37,6.3l2.53-4.39A1.7,1.7,0,0,1,41,1.08a1.72,1.72,0,0,1,.83.22L53.67,8.14a1.67,1.67,0,0,1,.61,2.27l-2.54,4.41a2.61,2.61,0,0,0,.12,2.85A24.46,24.46,0,0,1,54.35,22a2.65,2.65,0,0,0,2.41,1.52h5.07a1.67,1.67,0,0,1,1.67,1.67V38.83a1.67,1.67,0,0,1-1.67,1.67H56.76A2.63,2.63,0,0,0,54.35,42a24.63,24.63,0,0,1-2.49,4.31,2.63,2.63,0,0,0-.12,2.85l2.54,4.4a1.68,1.68,0,0,1-.61,2.27L41.83,62.7A1.72,1.72,0,0,1,41,62.92Z"/>
<path d="M23,1.58h0a1.16,1.16,0,0,1,1,.58l2.54,4.39a3.14,3.14,0,0,0,2.7,1.59l.31,0C30.37,8,31.19,8,32,8s1.63,0,2.44.12l.31,0a3.14,3.14,0,0,0,2.7-1.59L40,2.16a1.16,1.16,0,0,1,1-.58,1.1,1.1,0,0,1,.58.16L53.42,8.57a1.16,1.16,0,0,1,.42,1.59L51.3,14.57a3.15,3.15,0,0,0,.15,3.4,23.69,23.69,0,0,1,2.45,4.21A3.12,3.12,0,0,0,56.76,24h5.07A1.17,1.17,0,0,1,63,25.17V38.83A1.17,1.17,0,0,1,61.83,40H56.76a3.11,3.11,0,0,0-2.86,1.82,24.33,24.33,0,0,1-2.44,4.23,3.11,3.11,0,0,0-.15,3.39l2.53,4.4a1.13,1.13,0,0,1,.12.88,1.17,1.17,0,0,1-.54.71L41.58,62.26a1.08,1.08,0,0,1-.58.16,1.16,1.16,0,0,1-1-.58l-2.54-4.39a3.14,3.14,0,0,0-2.7-1.59l-.31,0C33.63,56,32.81,56,32,56s-1.63,0-2.44-.12l-.31,0a3.14,3.14,0,0,0-2.7,1.59L24,61.84a1.16,1.16,0,0,1-1,.58,1.1,1.1,0,0,1-.58-.16L10.58,55.43a1.16,1.16,0,0,1-.42-1.59l2.54-4.41a3.15,3.15,0,0,0-.15-3.4,23.69,23.69,0,0,1-2.45-4.21A3.12,3.12,0,0,0,7.24,40H2.17A1.17,1.17,0,0,1,1,38.83V25.17A1.17,1.17,0,0,1,2.17,24H7.24a3.11,3.11,0,0,0,2.86-1.82A24.33,24.33,0,0,1,12.54,18a3.11,3.11,0,0,0,.15-3.39l-2.53-4.4a1.16,1.16,0,0,1,.42-1.59L22.42,1.74A1.08,1.08,0,0,1,23,1.58m0-1a2.11,2.11,0,0,0-1.08.29L10.08,7.7a2.17,2.17,0,0,0-.79,3l2.54,4.4a2.15,2.15,0,0,1-.1,2.31,24.92,24.92,0,0,0-2.54,4.4A2.13,2.13,0,0,1,7.24,23H2.17A2.17,2.17,0,0,0,0,25.17V38.83A2.17,2.17,0,0,0,2.17,41H7.24a2.13,2.13,0,0,1,1.95,1.23,25.25,25.25,0,0,0,2.55,4.39,2.13,2.13,0,0,1,.09,2.31L9.29,53.34a2.17,2.17,0,0,0,.79,3l11.84,6.83a2.11,2.11,0,0,0,1.08.29,2.17,2.17,0,0,0,1.88-1.08L27.41,58a2.14,2.14,0,0,1,1.84-1.09h.21a24.88,24.88,0,0,0,5.08,0h.21A2.14,2.14,0,0,1,36.59,58l2.53,4.39A2.17,2.17,0,0,0,41,63.42a2.11,2.11,0,0,0,1.08-.29L53.92,56.3a2.17,2.17,0,0,0,.79-3l-2.54-4.4a2.15,2.15,0,0,1,.1-2.31,24.92,24.92,0,0,0,2.54-4.4A2.13,2.13,0,0,1,56.76,41h5.07A2.17,2.17,0,0,0,64,38.83V25.17A2.17,2.17,0,0,0,61.83,23H56.76a2.13,2.13,0,0,1-1.95-1.23,25.25,25.25,0,0,0-2.55-4.39,2.13,2.13,0,0,1-.09-2.31l2.54-4.41a2.17,2.17,0,0,0-.79-3L42.08.87A2.11,2.11,0,0,0,41,.58a2.17,2.17,0,0,0-1.88,1.08L36.59,6.05a2.14,2.14,0,0,1-1.84,1.09h-.21a24.88,24.88,0,0,0-5.08,0h-.21a2.14,2.14,0,0,1-1.84-1.09L24.88,1.66A2.17,2.17,0,0,0,23,.58Z"/><circle class="a" cx="32" cy="32" r="11.5"/><path d="M32,21A11,11,0,1,1,21,32,11,11,0,0,1,32,21m0-1A12,12,0,1,0,44,32,12,12,0,0,0,32,20Z"/>
</svg>

<!-- Send -->
<svg viewBox="0 0 64 64">
 <title>send</title>
 <path d="M47.28,16.8,29.6,34.64a3.3,3.3,0,0,1-3.59.71L2.5,25.42a3.28,3.28,0,0,1,.26-6.13L59.21.87A3.28,3.28,0,0,1,63.32,5l-18.93,56a3.26,3.26,0,0,1-6.12.18l-6.4-15.68"/>
</svg>

<!-- Sell -->
<svg xmlns="http://www.w3.org/2000/svg" width="64" height="64" viewBox="0 0 64 64"><defs><style>.a{fill:none;stroke:#000;stroke-linecap:round;stroke-linejoin:round;stroke-width:3px;}</style></defs><title>sell</title><path class="a" d="M40.41,14.32V10.27a8.46,8.46,0,1,0-16.92-.58,5.61,5.61,0,0,0,0,.58v4.05"/><line class="a" x1="42.25" y1="15.1" x2="38.5" y2="15.1"/><line class="a" x1="25.39" y1="15.1" x2="21.63" y2="15.1"/><line class="a" x1="38.41" y1="36.39" x2="24.88" y2="36.39"/><path class="a" d="M13.89,9.76H50a3.9,3.9,0,0,1,3.9,3.9V58.59A3.9,3.9,0,0,1,50,62.5H13.89A3.91,3.91,0,0,1,10,58.59V13.66A3.91,3.91,0,0,1,13.89,9.76Z"/><line class="a" x1="9.99" y1="53.71" x2="53.87" y2="53.71"/></svg>

<!-- Search -->
<svg viewBox="0 0 64 64">
<title>Search</title>
<path d="M25.69,1A24.7,24.7,0,0,1,43.15,43.15,24.7,24.7,0,0,1,8.23,8.22,24.53,24.53,0,0,1,25.69,1m0-1A25.7,25.7,0,1,0,43.85,7.51,25.64,25.64,0,0,0,25.69,0Z"/>
<line x1="63.65" y1="63.66" x2="43.36" y2="43.37"/>
</svg>

<!-- Refresh -->
<svg viewBox="0 0 64 64">
<title>refresh</title>
<path d="M60.94,43.13A30.87,30.87,0,1,1,59,17.93"/>
<polyline points="63.09 0.1 59.3 18.87 40.49 15.08"/>
</svg>

<!-- Play -->
<svg viewBox="0 0 64 64">
<title>play</title>
<path d="M57.12,26.79,12.88,1.31a6,6,0,0,0-9,5.21v51a6,6,0,0,0,9,5.21L57.12,37.21A6,6,0,0,0,57.12,26.79Z"/>
</svg>

<!-- Pay -->
<svg viewBox="0 0 64 64">
<title>pay</title>
<path d="M32,37.75A10.19,10.19,0,1,0,21.81,27.44V46.62"/>
<rect height="64" width="64" rx="8"></rect>
</svg>

<!-- Pause -->
<svg viewBox="0 0 64 64">
<title>pause</title>
<line x1="17.5" x2="17.5" y2="64"/>
<line x1="46.5" x2="46.5" y2="64"/>
</svg>

<!-- Password -->
<svg viewBox="0 0 64 64">
<title>password</title>
<path d="M20.29,21.49H43.71A9.31,9.31,0,0,1,53,30.8V41.93C53,53.7,43.39,63.71,31.61,63.5A21,21,0,0,1,11,42.48V30.8a9.31,9.31,0,0,1,9.32-9.31h0V12.61A12,12,0,0,1,31.21.53,11.71,11.71,0,0,1,43.71,12.2v9.29"/>
<circle cx="32" cy="44.93" r="5.79"/>
<line x1="32" y1="39.14" x2="32" y2="33.09"/>
</svg>

<!-- Options -->
<svg viewBox="0 0 64 64">
<title>options</title>
<circle cx="32" cy="6" r="5.5"/>
<circle cx="32" cy="58" r="5.5"/>
<circle cx="32" cy="31.89" r="5.5"/>
</svg>

<!-- Open Project -->
<svg xmlns="http://www.w3.org/2000/svg" width="64" height="64" viewBox="0 0 64 64"><defs><style>.a{fill:#fff;stroke:#000;stroke-miterlimit:10;}</style></defs><title>open project</title><path class="a" d="M4.55,37.26,7.61,24.82a2.29,2.29,0,0,1,2.23-1.71H61.19a2.25,2.25,0,0,1,2.23,2.76l-7,28.59a2.29,2.29,0,0,1-2.23,1.72h-51A3.13,3.13,0,0,1,0,53.05V10.12A3.13,3.13,0,0,1,3.12,7H22.33a3.14,3.14,0,0,1,2.86,1.86l1.63,3.68a3.15,3.15,0,0,0,2.87,1.86H52.57a3.13,3.13,0,0,1,3.13,3.13"/></svg>

<!-- Notification Bell -->
<svg viewBox="0 0 64 64">
<title>notification bell</title>
<path d="M50.62,29.12V19.54h0A19.08,19.08,0,0,0,32,.47,19.08,19.08,0,0,0,13.4,19.54h0V34.4h0a5.72,5.72,0,0,1-3.5,5.28,3.5,3.5,0,0,0-2.23,3.2v3.93a1.72,1.72,0,0,0,1.64,1.94H54.72a1.63,1.63,0,0,0,1.64-1.64V43c0-.14,0-.29,0-.43a3.47,3.47,0,0,0-3.5-2.93H24.37"/>
<path d="M32,63.47a6.66,6.66,0,0,0,6.48-5.08A1.3,1.3,0,0,0,37.2,56.8H26.8a1.3,1.3,0,0,0-1.28,1.59A6.66,6.66,0,0,0,32,63.47Z"/>
</svg>

<!-- Multiple Projects -->
<svg viewBox="0 0 64 64">
<title>multiple projects</title>
<path d="M8,56.7a3.12,3.12,0,0,0,3.12,3.11H60.34a3.11,3.11,0,0,0,3.11-3.11V21.36a3.11,3.11,0,0,0-3.11-3.11"/>
<path d="M3.07,52.39A2.63,2.63,0,0,1,.45,49.77V7.08A2.62,2.62,0,0,1,3.07,4.46H22.18A2.62,2.62,0,0,1,24.57,6l1.62,3.67a3.63,3.63,0,0,0,3.31,2.14H52.26a2.62,2.62,0,0,1,2.62,2.62V49.77a2.63,2.63,0,0,1-2.62,2.62Z"/><path d="M22.18,5a2.11,2.11,0,0,1,1.93,1.26l1.63,3.66a4.12,4.12,0,0,0,3.76,2.44H52.26a2.11,2.11,0,0,1,2.11,2.12V49.77a2.11,2.11,0,0,1-2.11,2.12H3.07A2.12,2.12,0,0,1,1,49.77V7.08A2.12,2.12,0,0,1,3.07,5H22.18m0-1H3.07A3.12,3.12,0,0,0,0,7.08V49.77a3.12,3.12,0,0,0,3.12,3.12H52.26a3.12,3.12,0,0,0,3.11-3.12V14.44a3.12,3.12,0,0,0-3.11-3.12H29.5a3.11,3.11,0,0,1-2.85-1.85L25,5.81A3.12,3.12,0,0,0,22.18,4Z"/>
</svg>

<!-- Manage -->
<svg viewBox="0 0 64 64">
<title>manage</title>
<path d="M24.54,57.67a.83.83,0,0,1-.69-.4l-1.51-2.63a1.8,1.8,0,0,0-1.54-.9h-.17a14.46,14.46,0,0,1-1.47.07,14.66,14.66,0,0,1-1.48-.07h-.17a1.79,1.79,0,0,0-1.53.9l-1.52,2.63a.82.82,0,0,1-.69.4.8.8,0,0,1-.4-.11L6.29,53.47A.8.8,0,0,1,6,52.38l1.53-2.64a1.76,1.76,0,0,0-.09-1.92A14.41,14.41,0,0,1,6,45.27a1.79,1.79,0,0,0-1.63-1h-3a.79.79,0,0,1-.8-.79V35.27a.8.8,0,0,1,.8-.8h3a1.79,1.79,0,0,0,1.63-1,14.41,14.41,0,0,1,1.47-2.55A1.78,1.78,0,0,0,7.51,29L6,26.33a.8.8,0,0,1,.3-1.09l7.08-4.09a.81.81,0,0,1,1.09.3L16,24.07a1.77,1.77,0,0,0,1.53.9h.17a14.68,14.68,0,0,1,1.48-.08,14.48,14.48,0,0,1,1.47.08h.17a1.78,1.78,0,0,0,1.54-.9l1.51-2.62a.81.81,0,0,1,.69-.4.79.79,0,0,1,.4.1L32,25.24a.8.8,0,0,1,.29,1.09L30.8,29a1.78,1.78,0,0,0,.08,1.93,14,14,0,0,1,1.48,2.54,1.77,1.77,0,0,0,1.62,1h3a.79.79,0,0,1,.79.8v8.18a.79.79,0,0,1-.79.79H34a1.77,1.77,0,0,0-1.62,1,14.64,14.64,0,0,1-1.48,2.54,1.8,1.8,0,0,0-.08,1.93l1.52,2.63A.8.8,0,0,1,32,53.47l-7.09,4.09A.8.8,0,0,1,24.54,57.67Z"/>
<path d="M13.77,21.55a.3.3,0,0,1,.26.15l1.51,2.62a2.29,2.29,0,0,0,2,1.15h.23a14.44,14.44,0,0,1,2.84,0h.22a2.28,2.28,0,0,0,2-1.15l1.52-2.62a.29.29,0,0,1,.26-.15.23.23,0,0,1,.14,0l7.09,4.09a.29.29,0,0,1,.14.18.3.3,0,0,1,0,.22l-1.53,2.64a2.28,2.28,0,0,0,.12,2.47,14.31,14.31,0,0,1,1.42,2.45A2.27,2.27,0,0,0,34,35h3a.29.29,0,0,1,.29.3v8.18a.29.29,0,0,1-.29.29H34a2.29,2.29,0,0,0-2.08,1.33,14.3,14.3,0,0,1-1.42,2.46A2.28,2.28,0,0,0,30.37,50l1.52,2.63a.33.33,0,0,1,0,.23.35.35,0,0,1-.14.18l-7.09,4.09a.33.33,0,0,1-.14,0,.29.29,0,0,1-.26-.15l-1.52-2.63a2.28,2.28,0,0,0-2-1.15h-.22a14.44,14.44,0,0,1-2.84,0h-.23a2.29,2.29,0,0,0-2,1.15L14,57a.3.3,0,0,1-.26.15.42.42,0,0,1-.15,0L6.54,53a.3.3,0,0,1-.11-.41L8,50a2.28,2.28,0,0,0-.11-2.47,14,14,0,0,1-1.43-2.45,2.27,2.27,0,0,0-2.08-1.33h-3a.29.29,0,0,1-.3-.29V35.27a.29.29,0,0,1,.3-.3h3a2.27,2.27,0,0,0,2.08-1.33,14.69,14.69,0,0,1,1.42-2.46A2.28,2.28,0,0,0,8,28.71L6.43,26.08a.29.29,0,0,1,.11-.4l7.08-4.09a.28.28,0,0,1,.15,0h0m0-1a1.29,1.29,0,0,0-.65.17L6,24.81a1.3,1.3,0,0,0-.48,1.77l1.52,2.63A1.27,1.27,0,0,1,7,30.6,15.25,15.25,0,0,0,5.5,33.23,1.27,1.27,0,0,1,4.33,34h-3A1.3,1.3,0,0,0,0,35.27v8.18a1.3,1.3,0,0,0,1.3,1.29h3a1.28,1.28,0,0,1,1.17.74A14.67,14.67,0,0,0,7,48.11a1.28,1.28,0,0,1,0,1.38L5.56,52.13A1.3,1.3,0,0,0,6,53.9L13.12,58a1.28,1.28,0,0,0,1.77-.47l1.52-2.63a1.28,1.28,0,0,1,1.1-.65h.12c.5,0,1,.07,1.53.07s1,0,1.52-.07h.12a1.28,1.28,0,0,1,1.1.65l1.52,2.63a1.32,1.32,0,0,0,1.13.65,1.24,1.24,0,0,0,.64-.18l7.09-4.09a1.29,1.29,0,0,0,.47-1.77L31.23,49.5a1.28,1.28,0,0,1,.06-1.38,15.34,15.34,0,0,0,1.52-2.64A1.29,1.29,0,0,1,34,44.74h3a1.29,1.29,0,0,0,1.29-1.29V35.27A1.3,1.3,0,0,0,37,34H34a1.28,1.28,0,0,1-1.17-.74,15.25,15.25,0,0,0-1.52-2.63,1.26,1.26,0,0,1-.06-1.38l1.52-2.64a1.29,1.29,0,0,0-.47-1.77l-7.09-4.09a1.23,1.23,0,0,0-.64-.17,1.3,1.3,0,0,0-1.13.65L21.9,23.82a1.28,1.28,0,0,1-1.1.65h-.12c-.5,0-1-.08-1.52-.08s-1,0-1.53.08h-.12a1.28,1.28,0,0,1-1.1-.65L14.89,21.2a1.28,1.28,0,0,0-1.12-.65Z"/>
<path d="M19.16,46a6.69,6.69,0,1,1,6.68-6.68A6.69,6.69,0,0,1,19.16,46Z"/>
<path d="M19.16,33.17A6.19,6.19,0,1,1,13,39.36a6.19,6.19,0,0,1,6.19-6.19m0-1a7.19,7.19,0,1,0,7.18,7.19,7.19,7.19,0,0,0-7.18-7.19Z"/>
<path d="M48.67,31a.36.36,0,0,1-.36-.36v-2a1.34,1.34,0,0,0-.79-1.23,10,10,0,0,1-1.68-1,1.25,1.25,0,0,0-.78-.25,1.33,1.33,0,0,0-.68.18l-1.77,1a.35.35,0,0,1-.18.05.37.37,0,0,1-.32-.19l-2.74-4.74a.37.37,0,0,1,.14-.5l1.76-1A1.38,1.38,0,0,0,42,19.62a7.78,7.78,0,0,1-.05-1,7.62,7.62,0,0,1,.05-1,1.38,1.38,0,0,0-.68-1.31l-1.76-1a.37.37,0,0,1-.14-.51l2.74-4.74a.38.38,0,0,1,.32-.18.35.35,0,0,1,.18.05l1.77,1a1.39,1.39,0,0,0,.69.18,1.3,1.3,0,0,0,.78-.25,9.31,9.31,0,0,1,1.67-1,1.35,1.35,0,0,0,.79-1.24v-2a.37.37,0,0,1,.36-.37h5.48a.38.38,0,0,1,.37.37v2A1.35,1.35,0,0,0,55.31,10a9.31,9.31,0,0,1,1.67,1,1.37,1.37,0,0,0,.78.25,1.31,1.31,0,0,0,.69-.19l1.76-1a.41.41,0,0,1,.18-.05.37.37,0,0,1,.32.18l2.74,4.74a.4.4,0,0,1,0,.28.4.4,0,0,1-.17.23l-1.76,1a1.35,1.35,0,0,0-.68,1.3c0,.32,0,.65,0,1s0,.65,0,1a1.36,1.36,0,0,0,.68,1.31l1.76,1a.37.37,0,0,1,.13.5l-2.74,4.74a.36.36,0,0,1-.32.19.41.41,0,0,1-.18-.05l-1.76-1a1.39,1.39,0,0,0-.69-.18,1.25,1.25,0,0,0-.78.25,10,10,0,0,1-1.68,1,1.35,1.35,0,0,0-.78,1.23v2a.37.37,0,0,1-.37.36Z"/>
<path d="M54,6.83v1.9a1.85,1.85,0,0,0,1.08,1.7,9.62,9.62,0,0,1,1.59.91,1.78,1.78,0,0,0,1.07.35,1.94,1.94,0,0,0,.94-.25l1.65-.95L63,15,61.31,16a1.86,1.86,0,0,0-.93,1.79c0,.3,0,.61,0,.91s0,.62,0,.92a1.86,1.86,0,0,0,.93,1.79l1.64.95-2.6,4.51-1.65-.95a1.84,1.84,0,0,0-.94-.25,1.89,1.89,0,0,0-1.08.34,9.29,9.29,0,0,1-1.58.92A1.85,1.85,0,0,0,54,28.57v1.9H48.81v-1.9a1.86,1.86,0,0,0-1.09-1.69A8.92,8.92,0,0,1,46.14,26a1.89,1.89,0,0,0-1.08-.34,2,2,0,0,0-.94.25l-1.64.95-2.61-4.51,1.65-.95a1.85,1.85,0,0,0,.92-1.79c0-.3,0-.61,0-.92s0-.61,0-.91A1.85,1.85,0,0,0,41.52,16L39.87,15l2.61-4.51,1.65.95a1.91,1.91,0,0,0,.94.25,1.84,1.84,0,0,0,1.07-.34,9.29,9.29,0,0,1,1.58-.92,1.86,1.86,0,0,0,1.09-1.7V6.83H54m.13-1H48.67a.86.86,0,0,0-.86.87v2a.86.86,0,0,1-.5.79,10,10,0,0,0-1.76,1,.83.83,0,0,1-.48.15.86.86,0,0,1-.44-.12l-1.77-1a.82.82,0,0,0-.43-.12.86.86,0,0,0-.75.43l-2.74,4.74a.87.87,0,0,0,.32,1.19l1.76,1a.84.84,0,0,1,.43.81,8.71,8.71,0,0,0-.05,1,8.5,8.5,0,0,0,.05,1,.86.86,0,0,1-.43.82l-1.76,1a.86.86,0,0,0-.32,1.18l2.74,4.74a.87.87,0,0,0,.75.44.82.82,0,0,0,.43-.12l1.76-1a.88.88,0,0,1,.44-.12.84.84,0,0,1,.49.15,10,10,0,0,0,1.76,1,.86.86,0,0,1,.5.78v2a.85.85,0,0,0,.86.86h5.48a.86.86,0,0,0,.87-.86v-2a.86.86,0,0,1,.49-.78,10,10,0,0,0,1.76-1,.84.84,0,0,1,.49-.15,1,1,0,0,1,.44.11l1.76,1a.86.86,0,0,0,1.19-.32l2.73-4.74a.86.86,0,0,0-.31-1.18l-1.76-1a.84.84,0,0,1-.43-.82c0-.33,0-.67,0-1s0-.68,0-1a.82.82,0,0,1,.43-.81l1.76-1a.87.87,0,0,0,.31-1.19L61.15,9.87A.87.87,0,0,0,60,9.56l-1.76,1a.88.88,0,0,1-.44.12.82.82,0,0,1-.49-.16,9.82,9.82,0,0,0-1.76-1A.87.87,0,0,1,55,8.73v-2a.87.87,0,0,0-.87-.87Z"/><circle class="a" cx="51.41" cy="18.65" r="4.31"/><path d="M51.41,14.85a3.81,3.81,0,1,1-3.81,3.8,3.81,3.81,0,0,1,3.81-3.8m0-1a4.81,4.81,0,1,0,4.81,4.8,4.81,4.81,0,0,0-4.81-4.8Z"/>
</svg>

<!-- Leaderboard -->
<svg viewBox="0 0 64 64">
<title>leaderboard</title>
<path d="M32,.5H.5V12.72A22.93,22.93,0,0,0,6.06,27.54a27.53,27.53,0,0,0,8.36,6.72l.34.19A11.67,11.67,0,0,1,21.2,44.54c0,4.76-3.23,8.87-7.89,10.79l-.05,0C9.75,56.76,7.39,59.69,7.39,63v.46H56.61V63c0-3.35-2.36-6.28-5.87-7.69l-.05,0c-4.66-1.92-7.89-6-7.89-10.79a11.67,11.67,0,0,1,6.44-10.09l.34-.19a27.53,27.53,0,0,0,8.36-6.72A22.93,22.93,0,0,0,63.5,12.72V.5Z"/>
<path d="M31.46,26l-4.13,2.17a1.17,1.17,0,0,1-1.7-1.23l.79-4.59a1.16,1.16,0,0,0-.34-1L22.75,18a1.17,1.17,0,0,1,.65-2L28,15.36a1.15,1.15,0,0,0,.88-.64L31,10.54a1.17,1.17,0,0,1,2.1,0l2.06,4.18a1.15,1.15,0,0,0,.88.64L40.6,16a1.17,1.17,0,0,1,.65,2l-3.33,3.25a1.16,1.16,0,0,0-.34,1l.79,4.59a1.17,1.17,0,0,1-1.7,1.23L32.54,26A1.15,1.15,0,0,0,31.46,26Z"/>
</svg>

<!-- Home -->
<svg viewBox="0 0 64 64">
<title>home</title>
<path d="M24.77,44.15H40.06V63.5H53.4V36h5.66a3.38,3.38,0,0,0,2.53-5.68l-6.73-7.16V11.26H46.48v3L34.53,1.59a3.49,3.49,0,0,0-5.06,0L2.41,30.35A3.38,3.38,0,0,0,4.94,36H10.6V63.5H24.77"/>
</svg>

<!-- Guest -->
<svg viewBox="0 0 64 64">
<title>guest</title>
<path d="M44.7,19.53c0,8.58-4.36,15.95-12.7,15.9-7.48,0-11.75-5.88-12.55-13.26"/>
<path d="M25.9,35.87c-2.31,4.31-9.66,6.53-15.09,8.91-2.25,1-4.05,12.8-1.51,12.8a45.45,45.45,0,0,0,23.18,5.9,40,40,0,0,0,22.22-5.9c2.54,0,.74-11.81-1.51-12.8-5.46-2.38-12.81-4.6-15.09-8.91"/>
<path d="M44.92,18.76c-5.86,2.53-18.4,5.12-25.47,3.41-4.1-1-7.11-3.32-7.9-7.54-.73-3.87,3.82-6.53,8.23-7.15l.3,0v6.68H43.92v-6a50.44,50.44,0,0,0,9.15.39C54.53,8.36,53.43,15.08,44.92,18.76Z"/>
<path d="M43.92,6.34v7.78H20.08V6.34A5.84,5.84,0,0,1,25.93.5H38.07A5.84,5.84,0,0,1,43.92,6.34Z"/>
</svg>

<!-- File -->
<svg viewBox="0 0 64 64">
<title>file</title>
<path d="M63.5,21.13V51.69a9,9,0,0,1-9,9H9.47a9,9,0,0,1-9-9V12.31a9,9,0,0,1,9-9H34.13A9,9,0,0,1,41.3,6.94l3.16,4.21a2.56,2.56,0,0,0,2,1h8A9,9,0,0,1,63.5,21.13Z"/>
</svg>

<!-- Edit -->
<svg viewBox="0 0 64 64">
<title>edit</title>
<path d="M46.73,14.81l7,7,7.65-7.6A7.15,7.15,0,0,0,61.39,4L60.11,2.77a7.23,7.23,0,0,0-10.19,0L3.87,48.57a5,5,0,0,0-1.39,2.6L.53,61.27a1.74,1.74,0,0,0,2,2l10.15-1.94A5.06,5.06,0,0,0,15.34,60L49.6,25.9"/>
</svg>

<!-- Deposit -->
<svg xmlns="http://www.w3.org/2000/svg" width="64" height="64" viewBox="0 0 64 64"><defs><style>.a{fill:none;stroke:#000;stroke-linecap:round;stroke-linejoin:round;stroke-width:3px;}</style></defs><title>deposit</title><line class="a" x1="5.16" y1="35.08" x2="5.16" y2="24.6"/><polyline class="a" points="5.16 7.95 5.16 1.78 62.5 1.78 62.5 59.75 5.16 59.75 5.16 51.74"/><line class="a" x1="11.26" y1="62.22" x2="22.24" y2="62.22"/><line class="a" x1="44.2" y1="62.22" x2="55.18" y2="62.22"/><ellipse class="a" cx="33.83" cy="37.55" rx="11.59" ry="11.72"/><ellipse class="a" cx="33.83" cy="37.55" rx="4.27" ry="4.32"/><path class="a" d="M4.87,8h.58a3.38,3.38,0,0,1,3.37,3.4v9.84A3.39,3.39,0,0,1,5.45,24.6H4.87A3.39,3.39,0,0,1,1.5,21.19V11.35A3.38,3.38,0,0,1,4.87,8Z"/><path class="a" d="M4.87,35.08h.58a3.39,3.39,0,0,1,3.37,3.41v9.84a3.39,3.39,0,0,1-3.37,3.41H4.87A3.39,3.39,0,0,1,1.5,48.33V38.49A3.39,3.39,0,0,1,4.87,35.08Z"/></svg>

<!-- Dashboard -->
<svg viewBox="0 0 64 64">
<title>dashboard</title>
<rect x="36" y="0" width="28" height="20"/>
<rect x="0" y="0" width="28" height="36"/>
<rect x="36" y="28" width="28" height="36"/>
<rect x="0" y="44" width="28" height="20"/>
</svg>

<!-- Copy -->
<svg xmlns="http://www.w3.org/2000/svg" width="64" height="64" viewBox="0 0 64 64"><defs><style>.a{fill:none;stroke:#000;stroke-miterlimit:10;}</style></defs><title>copy</title><path class="a" d="M54.5,49.5h3.17a5.83,5.83,0,0,0,5.83-5.83V6.33A5.83,5.83,0,0,0,57.67.5H20.33A5.83,5.83,0,0,0,14.5,6.33V9.5"/><rect class="a" x="0.5" y="14.5" width="49" height="49" rx="5.83" transform="translate(-14 64) rotate(-90)"/></svg>

<!-- Contract Creation -->
<svg viewBox="0 0 64 64">
    <title>contract creation</title>
    <path d="M47.07,23.85V11"/>
    <path d="M3,47A7,7,0,0,0,.48,52.39a6.89,6.89,0,0,0,2.05,4.93,6.78,6.78,0,0,0,3.78,2,6.34,6.34,0,0,0,1.16.1H40.09a7,7,0,0,0,7-7V44"/>
    <path d="M6.31,53V11.61a7,7,0,0,1,7-7H45.91a6.26,6.26,0,0,1,1.16.1,6.74,6.74,0,0,1,3.78,1.95A7,7,0,0,1,50.37,17"/>
    <line x1="14.46" y1="23.85" x2="38.92" y2="23.85"/>
    <line x1="14.46" y1="32" x2="38.92" y2="32"/>
    <line x1="14.46" y1="40.15" x2="31.93" y2="40.15"/>
    <path d="M57.79,24.44l-2.88-2.9,3.79-3.79a1,1,0,0,1,1.39,0l3.11,3.11a1,1,0,0,1,0,1.39L40.34,45.1a1,1,0,0,1-.52.28L36,46A1,1,0,0,1,34.9,44.9l.67-3.77a1,1,0,0,1,.27-.52L52.65,23.8"/>
</svg>

<!-- Contract -->
<svg viewBox="0 0 64 64">
<title>contract</title>
<path d="M4.75,49.27A8,8,0,0,0,4.2,61.14a7.82,7.82,0,0,0,4.34,2.24,7.42,7.42,0,0,0,1.34.12H47.41a8.06,8.06,0,0,0,8.05-8V7.87"/>
<path d="M8.54,56.13V8.54a8.06,8.06,0,0,1,8.05-8H54.12a7.42,7.42,0,0,1,1.34.12A7.82,7.82,0,0,1,59.8,2.86a8,8,0,0,1-.55,11.87"/>
<line x1="17.93" y1="22.62" x2="46.07" y2="22.62"/>
<line x1="17.93" y1="32" x2="46.07" y2="32"/>
<line x1="17.93" y1="41.38" x2="38.03" y2="41.38"/>
</svg>

<!-- Close -->
<svg viewBox="0 0 64 64">
<title>close</title>
<line x1="64" y1="0" x2="0" y2="64"/>
<line x1="64" y1="64" x2="0" y2="0"/>
</svg>

<!-- Clear -->
<svg viewBox="0 0 64 64">
<title>clear</title>
<path d="M55.44,51.69H22.71a8,8,0,0,1-5.4-2.09L1.66,35.38a3.57,3.57,0,0,1-.11-5.16L17.26,14.65a8,8,0,0,1,5.65-2.34H55.44a8.09,8.09,0,0,1,8.06,8.12V43.57A8.09,8.09,0,0,1,55.44,51.69Z"/>
<line x1="43.81" y1="24.13" x2="28.19" y2="39.87"/>
<line x1="43.81" y1="39.87" x2="28.19" y2="24.13"/>
</svg>

<!-- Chevron Right -->
<svg viewBox="0 0 64 64">
<title>chevron_right</title>
<polyline points="15.99 0.35 47.65 32 15.99 63.65"/>
</svg>

<!-- Chevron Left -->
<svg viewBox="0 0 64 64">
<title>chevron_left</title>
<polyline points="48.01 0.35 16.35 32 48.01 63.65"/>
</svg>

<!-- Chevron -->
<svg viewBox="0 0 64 64">
<polyline points="23.27 0.5 40.73 31.48 23.27 63.5"/>
</svg>

<!-- Checkbox -->
<svg viewBox="0 0 64 64">
<title>checkbox</title>
<rect x="0" y="0" width="64" height="64" rx="4"/>
<path d="M50.52,19.56,26,44.08,13.48,31.56"/>
</svg>

<!-- Buy -->
<svg viewBox="0 0 64 64">
<title>buy</title>
<path d="M40.47,14.31V10.26a8.46,8.46,0,1,0-16.91-.58v4.63"/>
<line x1="42.31" y1="15.09" x2="38.57" y2="15.09"/>
<line x1="25.46" y1="15.09" x2="21.71" y2="15.09"/>
<line x1="31.71" y1="29.61" x2="31.71" y2="43.16"/>
<line x1="38.47" y1="36.38" x2="24.96" y2="36.38"/>
<path d="M14,9.75H50a3.91,3.91,0,0,1,3.9,3.91V58.58A3.91,3.91,0,0,1,50,62.49H14a3.91,3.91,0,0,1-3.9-3.91V13.66A3.91,3.91,0,0,1,14,9.75Z"/>
<line x1="10.08" y1="53.7" x2="53.92" y2="53.7"/>
</svg>

<!-- Background -->
<svg xmlns="http://www.w3.org/2000/svg" width="1920" height="1080" viewBox="0 0 1920 1080"><defs><style>.a,.b,.e,.h{fill:none;}.a{stroke:#ff6060;}.b{stroke:#0061d1;}.c{fill:#ff6060;}.d{fill:#ffa7a7;}.e{stroke:#a7d0ff;stroke-width:8px;}.e,.h{stroke-linecap:round;}.f{fill:#7bb8ff;}.g{fill:#ffc1c1;}.h{stroke:#fbb;stroke-width:4px;}</style></defs><title>background</title><path class="a" d="M379.54,310.32s9.94,9.45,9.7,1.45,5.82,0,7.52-3.63-6.06-8.73,0-7,5.57-1.94,5.57-4.61"/><path class="b" d="M602.11,388.9s-6.55,12.05,1.11,9.75,1.51,5.62,5.46,6.32,6.86-8.12,6.79-1.82,3.32,4.88,5.9,4.19"/><circle class="c" cx="380.06" cy="265.36" r="6"/><circle class="d" cx="597.06" cy="457.36" r="12"/><line class="e" x1="713.63" y1="325.76" x2="778.56" y2="289.86"/><line class="e" x1="787.23" y1="308.11" x2="854.55" y2="271.86"/><line class="e" x1="776.23" y1="334.36" x2="828.02" y2="308.47"/><line class="e" x1="757.56" y1="323.86" x2="771.56" y2="315.86"/><path class="f" d="M400.39,664.13a6,6,0,0,1,10.33,0l6,10.19a6,6,0,0,1-2.12,8.21,5.91,5.91,0,0,1-3,.83h-12a6,6,0,0,1-6-6,5.91,5.91,0,0,1,.83-3Z"/><path class="g" d="M695.93,784.83a10,10,0,0,1,11.29,13l-7.1,21.36a10,10,0,0,1-17,3.41l-15-17.3a10,10,0,0,1,5.74-16.4Z"/><line class="h" x1="1337.56" y1="775.66" x2="1379.48" y2="752.48"/><line class="h" x1="1321.09" y1="796.27" x2="1364.56" y2="772.86"/><line class="h" x1="1284.98" y1="791.22" x2="1318.42" y2="774.5"/><line class="h" x1="1319.92" y1="785.44" x2="1328.96" y2="780.27"/><path class="c" d="M1072.42,516.3c3.07,3.23,6.91,4.77,11.14,5.88a47.88,47.88,0,0,0,6,1.44,35.74,35.74,0,0,1,4.15.37c.49.12.33.22.34,0a7.25,7.25,0,0,1-.57,2.19,15.9,15.9,0,0,0-1.61,5.19c-.25,3.64,2.61,5.74,5.69,6.87a22.27,22.27,0,0,0,5.76,1.18,14.56,14.56,0,0,1,4.69.84c1.88.86,2.49,2.65,3.42,4.34a12.45,12.45,0,0,0,3.48,4c3.12,2.3,7,2.41,10.62,3.56a7.89,7.89,0,0,1,5.61,7.88c0,2.1-.47,4.27.24,6.32a7,7,0,0,0,4.67,4.35,20.8,20.8,0,0,0,6.3.35c1.75,0,3.77-.15,5,1.34s3.31-.63,2.12-2.12c-2.39-3-6.8-2.11-10.13-2.16-1.75,0-3.53-.31-4.63-1.83s-.64-3.56-.56-5.25c.19-3.9-1.13-7.9-4.43-10.2-3.08-2.16-7-2.18-10.45-3.36a9,9,0,0,1-4.16-2.83c-1.22-1.54-1.76-3.46-3-5-2.45-3-6.15-3-9.68-3.39-2.39-.29-7.23-1.17-7.53-4.24s3.57-6.44,1.82-9.51c-.78-1.35-2.37-1.6-3.78-1.72a27.89,27.89,0,0,1-5.39-.76c-4.77-1.32-9.41-2.2-13-5.93-1.33-1.4-3.45.72-2.12,2.12Z"/><path class="c" d="M497.48,761.42c-2.65.3-4.62,2.75-5.08,5.29-.52,2.92,1.59,4.36,3.68,5.86a3.48,3.48,0,0,1,1.67,2.83,11.3,11.3,0,0,1-.46,4c-.62,2.08-2.64,4.08-2.11,6.38,1,4.25,6,5.18,9.48,6.2a17.8,17.8,0,0,1,5.5,2.17c1.08.78,1.39,1.63.51,2.79-1.4,1.84-4,2.89-6,3.79s-4.4,1.65-6.5,2.69c-1.73.86-.21,3.45,1.52,2.6,3.82-1.9,8.07-2.87,11.52-5.5,1.56-1.19,3-2.82,3-4.89a5.14,5.14,0,0,0-2.69-4.18c-3.28-2.12-7.36-2.35-10.89-3.87-1.1-.48-2.93-1.77-2.35-3.21.4-1,1-1.88,1.44-2.87a14.62,14.62,0,0,0,1-4.28,8.92,8.92,0,0,0-.57-4.46,8.11,8.11,0,0,0-3.08-3.1c-.85-.59-1.94-1.21-1.72-2.4.17-.92,1-2.67,2.13-2.8,1.9-.22,1.92-3.22,0-3Z"/><path class="c" d="M1542.52,175.39l-2,.41a1.5,1.5,0,0,0-1,1c-.87,2.94.89,5,3.76,5.48a22.18,22.18,0,0,0,4,.18c.57,0,1.13,0,1.69,0,.22,0,.43,0,.64,0s.32,0,0,0c.28,0,.57.12.84.18a9.6,9.6,0,0,1,1.83.53,1.73,1.73,0,0,1,.78.66,37,37,0,0,0,2.9,4.14c2.48,2.63,6.61,3.2,8.58,6.38,1.08,1.75,1.4,3.84,2,5.79a12,12,0,0,0,3.49,5.83c1.45,1.26,3.58-.85,2.12-2.12-2.93-2.54-2.91-6.53-4.41-9.86-1.59-3.55-4.89-4.94-8-6.82a10.66,10.66,0,0,1-3.39-3.76,7.69,7.69,0,0,0-2.09-2.57c-2.05-1.37-4.69-1.39-7.05-1.34a14.24,14.24,0,0,1-3.8-.21c-1.12-.29-1.28-.52-1-1.65l-1,1,2-.41c1.89-.39,1.09-3.28-.8-2.9Z"/><path class="c" d="M134.6,206.42c2.25,0,4.85.06,6.71,1.53s2.91,4.18,3.7,6.42a7.68,7.68,0,0,1,.6,3.32,2.12,2.12,0,0,1-.85,1.46c-1.26,1-3.29,1.42-5,2a12.8,12.8,0,0,0-6.49,4.57c-1.09,1.6,1.51,3.1,2.6,1.52,2.68-3.9,8.26-3.07,11.32-6.34,1.88-2,1.56-4.83.74-7.23-1-2.74-2.16-5.79-4.38-7.75-2.48-2.19-5.8-2.54-9-2.54a1.5,1.5,0,0,0,0,3Z"/><path class="c" d="M1599.79,640.84a6.93,6.93,0,0,0,1.37,6.52,11.59,11.59,0,0,0,5.63,3.11,27.58,27.58,0,0,0,6.52.93,32.29,32.29,0,0,0,3.93-.26c1.24-.1,2.73,0,3.18,1.35a15.33,15.33,0,0,1,.19,4.44,8.88,8.88,0,0,0,.93,4.51,1.51,1.51,0,0,0,2.6-1.52,6.51,6.51,0,0,1-.53-3.41,24,24,0,0,0-.13-4c-.49-3.15-3.2-4.65-6.24-4.39a29.35,29.35,0,0,1-6.69,0,15.51,15.51,0,0,1-5.81-1.76,4,4,0,0,1-2-4.78c.47-1.87-2.42-2.67-2.9-.8Z"/><path class="f" d="M267.22,508.08c1.06,2,1.88,4.36,3.64,5.94a5.21,5.21,0,0,0,3.29,1.42c.71,0,1.82-.35,2.39.18a1.33,1.33,0,0,1,.37,1.38,6.3,6.3,0,0,1-.9,1.85,14.94,14.94,0,0,0-2.26,4c-.57,2.28.77,4,2.65,5.16a1.51,1.51,0,0,0,1.52-2.6,4.09,4.09,0,0,1-.95-.7,1.38,1.38,0,0,1-.35-.58.77.77,0,0,1,0-.34,2.37,2.37,0,0,1,.25-.72c.66-1.35,1.68-2.48,2.36-3.82a5,5,0,0,0,.17-4.82,3.86,3.86,0,0,0-2.69-2c-1-.17-2.07.21-3-.11a4.83,4.83,0,0,1-2.17-2.33c-.64-1.12-1.13-2.31-1.72-3.46-.89-1.71-3.48-.2-2.6,1.52Z"/><path class="f" d="M1172.5,7.3a4.66,4.66,0,0,0-2,3.86,5.85,5.85,0,0,0,2,3.5,30.44,30.44,0,0,1,2.88,2.67c1,1.37.81,3.28.95,4.89.29,3.53,2,6.1,4.36,8.63,2.1,2.27,4.23,4.47,4.31,7.75,0,1.93,3,1.93,3,0-.08-3.34-1.64-6-3.82-8.39-1.86-2.06-4.09-4-4.69-6.83-.39-1.83-.11-3.73-.62-5.54a7.24,7.24,0,0,0-2.17-3.43,21.69,21.69,0,0,1-2.74-2.59c-.78-1.05-.28-1.62.64-2.4,1.48-1.24-.65-3.36-2.12-2.12Z"/><path class="f" d="M1835.23,280.12c-1.87,6.26-4.56,12.36-5,19a15.73,15.73,0,0,0,1.64,8.78c1.24,2.16,3.1,3.86,4.53,5.87a6,6,0,0,1,1.37,3.21c0,1.49-1.13,2.64-2.17,3.56-1.45,1.28.68,3.4,2.12,2.12,2.12-1.87,3.59-4.38,2.83-7.27-.65-2.47-2.56-4.45-4.15-6.36a12,12,0,0,1-3.17-7.16,29.82,29.82,0,0,1,1.41-10.13c1-3.64,2.38-7.16,3.47-10.78.55-1.85-2.34-2.65-2.9-.8Z"/><path class="f" d="M88.14,1041.9a7.22,7.22,0,0,0,2.23-4.21,37.16,37.16,0,0,0-.1-4.22c0-2.82,1.88-5.44,4-7.09a27.78,27.78,0,0,1,7.93-4c2.87-1,5.5-2,7.17-4.7,2.06-3.33,2.91-7.26,4.88-10.64a1.51,1.51,0,0,0-2.6-1.52c-1.71,3-2.6,6.3-4.15,9.34a7,7,0,0,1-2.64,3.21,22.83,22.83,0,0,1-4.12,1.64c-5.38,1.83-10.93,5-12.93,10.61a11.46,11.46,0,0,0-.49,4.9c.15,1.85,0,3.19-1.35,4.56a1.5,1.5,0,0,0,2.12,2.12Z"/><path class="f" d="M1339.22,1030c.14-1.69,2-2.44,3.42-3a25.35,25.35,0,0,0,5.45-2.56,32.3,32.3,0,0,0,6.23-5.56,18.45,18.45,0,0,0,4.1-6.62c1.51-5.09-1.88-10.35-6.2-12.86-3.89-2.26-8.83-2.58-12-6-3.79-4-3.18-10.25-3.12-15.31a1.5,1.5,0,0,0-3,0c-.06,4.78-.34,9.82,1.79,14.25s6.48,6.37,10.93,7.93a15.9,15.9,0,0,1,6,3.22c1.81,1.75,3.34,4.34,3,6.94s-2.2,4.78-3.86,6.64a28.4,28.4,0,0,1-6.38,5.44c-3.5,2.16-8.86,2.28-9.29,7.42-.16,1.92,2.84,1.91,3,0Z"/><path class="f" d="M996.44,760.7c-6.92.17-13.92-1-18.82-6.31a43,43,0,0,1-7.69-11.94,12.06,12.06,0,0,1-1-3.27,4.52,4.52,0,0,1,0-1.14c.1-.41.08-.38.45-.7,1.47-1.25-.66-3.37-2.12-2.12-1.79,1.52-1.51,4.16-.93,6.18a32.39,32.39,0,0,0,3.84,7.89c3.22,5.15,6.91,9.93,12.67,12.38,4.28,1.82,9,2.14,13.56,2,1.93-.05,1.93-3.05,0-3Z"/><path class="f" d="M1822,998.35c-1.26-.26-3.21-.68-3.86-1.75a1.39,1.39,0,0,1-.18-.93,6.45,6.45,0,0,1,.44-1.56c1.25-3,3.48-5.48,5-8.29a15,15,0,0,0,1.76-4.46,15.69,15.69,0,0,0-.66-6.69c-.67-2.6-1.57-5.19-1.53-7.91,0-1.64.26-3.27.33-4.9a11.48,11.48,0,0,0-.86-5.59,6.3,6.3,0,0,0-4.8-3.28c-1.89-.3-2.7,2.59-.8,2.9,1.58.25,2.77.89,3.21,2.5a14,14,0,0,1,.17,4.79,29.09,29.09,0,0,0-.19,5.11c.28,2.9,1.26,5.62,1.89,8.44a9.26,9.26,0,0,1-.07,5.37,22.67,22.67,0,0,1-2.24,4.21c-1.63,2.55-3.85,5.17-4.53,8.19-.91,4.08,2.61,6,6.08,6.75,1.89.39,2.69-2.5.8-2.9Z"/><path class="f" d="M1157.34,275.1a20.65,20.65,0,0,0,3.09-3.69c1.21-1.62,2.39-3.27,3.73-4.79a11.23,11.23,0,0,1,3.92-3.23c1.56-.63,2.75.19,3.81,1.45l-.24-1.81a1.24,1.24,0,0,1-.47.41,5,5,0,0,1-1.28.56,15.16,15.16,0,0,1-3.54.6,24,24,0,0,1-8-.72,4.87,4.87,0,0,1-4-4.29c-.5-2.95.57-6.14,1.81-8.78a28.5,28.5,0,0,1,5.48-8.11,1.5,1.5,0,0,0-2.12-2.12,30.91,30.91,0,0,0-5.81,8.41c-1.58,3.29-2.84,7-2.35,10.72a7.77,7.77,0,0,0,5.07,6.7,24.13,24.13,0,0,0,9.36,1.22c2.8-.12,6.75-.48,8.43-3.09a1.53,1.53,0,0,0-.23-1.82,6.13,6.13,0,0,0-5.79-2.47,10.23,10.23,0,0,0-5.12,3.11,47,47,0,0,0-4.43,5.42,24,24,0,0,1-3.45,4.2c-1.48,1.24.65,3.36,2.12,2.12Z"/><path class="f" d="M1316.83,254.2c-.56,2.81-.63,6.18,1.71,8.25,2,1.73,4.73,2,7.24,2.05,2.71,0,5.4-.33,8.11-.38.59,0,1.19,0,1.79,0l.78.07c.38,0-.28-.06.09,0l.42.08c.24.05.46.12.69.18l.29.1c-.14-.05-.2-.11,0,0s.67.47.29.14c.15.14.29.27.43.42-.4-.43.24.61,0,.07a4.64,4.64,0,0,1,.2.73c-.09-.47,0,0,0,.17s0,.31,0,.46,0,.34,0,.5c0-.37,0,.17-.05.27a21.15,21.15,0,0,1-2.44,5.9c-.92,1.7,1.67,3.22,2.6,1.52,1.52-2.8,3.65-6.63,2.76-10-.65-2.49-3-3.39-5.37-3.64a49,49,0,0,0-7.75.21,33.71,33.71,0,0,1-4,0c-.29,0-.58,0-.86-.06l-.16,0-.49-.08a10.11,10.11,0,0,1-1.63-.46c.33.13,0,0-.13-.07l-.38-.21a2.62,2.62,0,0,1-.34-.24c.13.1.1.11-.09-.08l-.3-.3c-.29-.3,0,.06-.08-.1a5.81,5.81,0,0,1-.43-.77c.18.4,0-.12-.06-.23s-.07-.28-.1-.42,0-.15,0-.23c-.08-.38,0,.33,0-.07,0-.19,0-.38,0-.57a9.49,9.49,0,0,1,.24-2.55c.37-1.89-2.52-2.69-2.9-.8Z"/><circle class="d" cx="1861.87" cy="625.94" r="15.73"/><path class="f" d="M1512.42,492.48a7.87,7.87,0,0,1,5.22,12.5l-9.29,12.4a7.86,7.86,0,0,1-13.55-1.68l-6.06-14.52a7.86,7.86,0,0,1,8.33-10.82Z"/><line class="e" x1="105.45" y1="786.65" x2="141.34" y2="851.58"/><line class="e" x1="123.09" y1="860.26" x2="159.34" y2="927.58"/><line class="e" x1="96.84" y1="849.26" x2="122.73" y2="901.04"/><line class="e" x1="107.34" y1="830.58" x2="115.34" y2="844.58"/><line class="h" x1="1795.52" y1="74.05" x2="1772.34" y2="32.13"/><line class="h" x1="1816.12" y1="90.52" x2="1792.72" y2="47.05"/><line class="h" x1="1811.07" y1="126.63" x2="1794.36" y2="93.19"/><line class="h" x1="1805.3" y1="91.69" x2="1800.13" y2="82.65"/></svg>

<!-- Back Arrow -->
<svg viewBox="0 0 64 64">
<title>back_arrow</title>
<polyline points="25.97 6.24 0.5 32.06 25.92 57.83"/>
<line x1="20" y1="32" x2="64" y2="32"/>
</svg>

<!-- Audio Loader -->
<svg viewBox="0 0 64 64">
<title>audio loader</title>
<line x1="0.5" y1="13.71" x2="0.5" y2="64"/>
<line x1="21.5" y1="64" x2="21.5" y2="32"/>
<line x1="42.5" y1="64" x2="42.5"/>
<line x1="63.5" y1="64" x2="63.5" y2="22.86"/>
</svg>

<!-- Add Sections -->
<svg viewBox="0 0 64 64">
<title>add_sections</title>
<polyline points="21.46 42.99 0.5 42.99 0.5 13.51 63.5 13.51 63.5 28.25"/>
<line x1="45.12" y1="35.49" x2="45.12" y2="50.49"/>
<line x1="52.62" y1="42.99" x2="37.62" y2="42.99"/>
</svg>

<!-- Add -->
<svg viewBox="0 0 64 64">
<title>add</title>
<line x1="32" x2="32" y2="64"/>
<line x1="64" y1="32" y2="32"/>
</svg>




