<svg xmlns="http://www.w3.org/2000/svg" width="1920" height="1080" viewBox="0 0 1920 1080"><defs><style>.a{fill:#008c61;}.b{fill:#00aa6d;}.c{fill:#00cc7e;}.d{fill:#00db82;}.e{fill:#00ff85;}</style></defs><title>Artboard 1</title><path class="a" d="M107.24-188.92C-186.38-21.48-268.74,144.2-296,208.52-433.1,532.58-298.18,948-59.8,1179.08c390.6,378.74,1027.31,232.09,1647.36,89.28,371.53-85.57,474.35-172.31,532.8-239,255.13-291.28,217.24-832.18-23-1149.12C1672.23-680.5,646.81-496.62,107.24-188.92Z"/><path class="b" d="M536.19-10.36C315.51,110,244,128.16,190.59,220c-103.47,178.09-8.67,409.07,17.28,472.32,118.17,287.95,381.26,413.09,469.44,455s503,239.29,820.8,34.56c240.63-155,301-460.36,305.28-483.84,39.52-215.38-43.52-348.5,57.6-561.6,56.9-119.9,107.58-129.17,100.8-187.2C1940-237.22,1381.72-437,968.19-272.44,837.77-220.55,863.68-188.89,536.19-10.36Z"/><path class="c" d="M726.44,61.64C675.44,100.67,447.7,275,473,505.16,490.1,660.78,613.78,759.58,691.88,822c65.11,52,252.63,201.8,466.56,155.52,217.82-47.13,336.28-270.11,391.68-374.4,65.29-122.9,49.28-165.29,144-328.32,75-129.06,119.3-161.49,106.56-211.68-30.9-121.72-344.12-138.23-426.24-142.56C1183.07-89.57,940.72-102.34,726.44,61.64Z"/><path class="d" d="M876.55,140.13c-26.08,34-129.48,179.94-74.88,342.72C858.46,652.17,1054,743.7,1207.75,719c136.56-21.93,207.43-130.29,337-328.32,89-136.14,83.64-184.54,80.64-201.6-22.22-126.18-205-195.24-322.56-210.24C1277.78-24.34,1024.23-52.36,876.55,140.13Z"/><path class="e" d="M1171.72,159.13c-47.63,47-54.5,139.73-17.28,190.08,66,89.34,287.89,68.42,342.72-46.08,29.29-61.16,13.37-154.14-40.32-190.08-37.91-25.37-84.79-15-178.56,5.76C1221.81,131.31,1193.58,137.56,1171.72,159.13Z"/></svg>