<svg xmlns="http://www.w3.org/2000/svg" width="512" height="512" viewBox="0 0 512 512"><defs><style>.a{fill:#fff;}.a,.b{stroke:#000;stroke-miterlimit:10;stroke-width:13px;}.b{fill:none;}</style></defs><title>Artboard 1</title><path class="a" d="M94.14,385.72v-115a62.3,62.3,0,0,1,31.15-53.95l99.56-57.48a62.29,62.29,0,0,1,62.3,0l99.56,57.48a62.3,62.3,0,0,1,31.15,53.95v115a62.28,62.28,0,0,1-31.15,53.95l-99.56,57.48a62.29,62.29,0,0,1-62.3,0l-99.56-57.48A62.28,62.28,0,0,1,94.14,385.72Z"/><path class="b" d="M141.4,262.07l90,52A49.1,49.1,0,0,1,256,356.58V460.37"/><line class="b" x1="302.28" y1="301.52" x2="371.21" y2="261.72"/><path class="a" d="M383.27,191.09v-90.4a49,49,0,0,0-24.49-42.43l-78.29-45.2a49,49,0,0,0-49,0l-78.29,45.2a49,49,0,0,0-24.49,42.43v90.4a49,49,0,0,0,24.49,42.42l78.29,45.2a49,49,0,0,0,49,0l78.29-45.2A49,49,0,0,0,383.27,191.09Z"/><path class="b" d="M346.11,93.86,275.3,134.74A38.61,38.61,0,0,0,256,168.17v81.62"/><line class="b" x1="219.61" y1="124.87" x2="165.41" y2="93.58"/></svg>